<svg xmlns="http://www.w3.org/2000/svg" viewBox="0 0 48 48" fill="none">
  <defs>
    <linearGradient id="brandGradient" x1="0%" y1="0%" x2="100%" y2="100%">
      <stop offset="0%" style="stop-color:#3B82F6"/>
      <stop offset="100%" style="stop-color:#8B5CF6"/>
    </linearGradient>
    <linearGradient id="sparkleGradient" x1="0%" y1="0%" x2="100%" y2="100%">
      <stop offset="0%" style="stop-color:#60A5FA"/>
      <stop offset="100%" style="stop-color:#A78BFA"/>
    </linearGradient>
  </defs>
  <!-- Main rounded square background -->
  <rect x="4" y="4" width="40" height="40" rx="10" fill="url(#brandGradient)"/>
  <!-- Document icon base -->
  <path d="M16 12h10l6 6v18a2 2 0 01-2 2H16a2 2 0 01-2-2V14a2 2 0 012-2z" fill="white" fill-opacity="0.95"/>
  <!-- Document fold -->
  <path d="M26 12v6h6" fill="none" stroke="url(#brandGradient)" stroke-width="1.5" stroke-linecap="round"/>
  <!-- AI sparkle 1 -->
  <path d="M34 10l1 2 2 1-2 1-1 2-1-2-2-1 2-1z" fill="url(#sparkleGradient)"/>
  <!-- AI sparkle 2 -->
  <path d="M38 18l0.7 1.3 1.3 0.7-1.3 0.7-0.7 1.3-0.7-1.3-1.3-0.7 1.3-0.7z" fill="#60A5FA"/>
  <!-- R letter stylized -->
  <path d="M18 22h6a3 3 0 010 6h-4l5 6" fill="none" stroke="url(#brandGradient)" stroke-width="2.5" stroke-linecap="round" stroke-linejoin="round"/>
  <path d="M18 22v12" fill="none" stroke="url(#brandGradient)" stroke-width="2.5" stroke-linecap="round"/>
</svg>
